<svg id="Layer_1" enable-background="new 0 0 512 512" height="512" viewBox="0 0 512 512" width="512" xmlns="http://www.w3.org/2000/svg"><g><path d="m367.401 338.51c14.05 56.11 18.082 144.72-111.554 144.72-129.628 0-125.308-88.61-111.267-144.72 14.05-56.1-98.509-331.01 111.267-331.01s97.513 274.91 111.554 331.01z" fill="#855151"/><path d="m406 405.448v99.052h-300v-99.052c0-34.787 28.201-62.988 62.988-62.988h37.872c10.571 0 19.14-8.569 19.14-19.14v-56.34h60v56.34c0 10.571 8.569 19.14 19.14 19.14h37.872c34.787 0 62.988 28.201 62.988 62.988z" fill="#ffcebf"/><g fill="#ffb09e"><path d="m275.14 342.46h30c-10.571 0-19.14-8.569-19.14-19.14v-56.34h-30v56.34c0 10.571 8.569 19.14 19.14 19.14z"/><path d="m343.012 342.46h-30c34.787 0 62.988 28.201 62.988 62.988v99.052h30v-99.052c0-34.787-28.201-62.988-62.988-62.988z"/></g><g fill="#ffb09e"><path d="m172.894 172.904c0 21.879-13.38 39.615-29.885 39.615s-26.093-20.369-26.093-42.248 9.588-36.983 26.093-36.983 29.885 17.737 29.885 39.616z"/><path d="m339.106 172.904c0 21.879 13.38 39.615 29.885 39.615s26.093-20.369 26.093-42.248-9.588-36.983-26.093-36.983-29.885 17.737-29.885 39.616z"/></g><path d="m159.546 195.477v-65.633c0-53.27 43.184-96.454 96.454-96.454 53.27 0 96.454 43.184 96.454 96.454v65.27c0 53.371-43.265 96.636-96.636 96.636-53.17 0-96.272-43.103-96.272-96.273z" fill="#ffcebf"/><path d="m256 33.389c-5.103 0-10.112.4-15 1.163 46.146 7.206 81.455 47.124 81.455 95.292v65.27c0 48.263-35.382 88.259-81.621 95.473 4.883.763 9.887 1.163 14.985 1.163 53.371 0 96.636-43.266 96.636-96.636v-65.27c0-53.271-43.184-96.455-96.455-96.455z" fill="#ffb09e"/><path d="m256 33.667s-.503 117.491-101.974 139.198c-.91.195-1.819-.356-2.02-1.221-3.564-15.307-28.011-137.977 103.994-137.977z" fill="#ae6c6c"/><path d="m256 33.667s.503 117.491 101.974 139.198c.91.195 1.819-.356 2.02-1.221 3.564-15.307 28.011-137.977-103.994-137.977z" fill="#ae6c6c"/><g><path d="m256 33.667c86.643 8.366 80.209 100.671 75.42 130.46 7.98 3.669 16.795 6.65 26.553 8.737.91.195 1.819-.356 2.02-1.221 3.565-15.306 28.012-137.976-103.993-137.976z" fill="#9b5e5e"/><path d="" fill="#855151"/></g><g><path d="m406 440.217c4.143 0 7.5-3.358 7.5-7.5v-27.267c0-26.86-15.105-50.251-37.262-62.146-.492-2.186-1.006-4.394-1.562-6.615-3.113-12.439 1.184-39.866 6.158-71.622 2.556-16.313 5.428-34.703 7.66-53.434 9.294-9.409 14.086-25.443 14.086-41.362 0-14.463-3.781-26.183-10.421-33.956-1.921-41.274-11.916-72.337-30.53-94.883-2.636-3.195-7.363-3.644-10.559-1.009-3.193 2.637-3.646 7.364-1.008 10.559 14.935 18.091 23.625 42.933 26.432 75.665-1.668-.394-3.402-.651-5.196-.771-1.122-20.401-6.424-43.674-21.541-62.715-19.487-24.548-51.032-36.994-93.757-36.994-42.726 0-74.271 12.447-93.76 36.995-15.116 19.041-20.418 42.314-21.539 62.713-1.863.125-3.66.4-5.387.82 2.732-32.287 11.187-56.888 25.716-74.926 19.928-24.742 50.944-36.769 94.82-36.769 28.097 0 51.509 5.185 69.588 15.409 3.607 2.039 8.182.769 10.221-2.836s.77-8.182-2.836-10.221c-20.359-11.514-46.257-17.352-76.973-17.352-48.03 0-83.863 14.252-106.502 42.36-18.137 22.518-27.858 53.347-29.692 94.167-6.526 7.774-10.235 19.413-10.235 33.742 0 15.851 4.751 31.815 13.967 41.24 1.824 15.221 4.067 30.134 6.044 42.84.576 3.703 3.768 6.348 7.401 6.348.383 0 .771-.029 1.162-.09 4.093-.637 6.895-4.471 6.258-8.563-1.516-9.744-3.189-20.795-4.702-32.252 1.125.141 2.274.227 3.459.227 3.939 0 7.783-.756 11.437-2.22 4.187 19.201 13.771 36.832 27.998 51.051 10.427 10.433 22.687 18.371 36.055 23.515v30.953c0 6.418-5.222 11.64-11.64 11.64h-37.87c-5.667 0-11.172.69-16.455 1.959 1.888-11.621.22-28.525-2.894-49.998-.595-4.1-4.4-6.94-8.499-6.346-4.099.595-6.94 4.4-6.346 8.499 2.618 18.048 4.963 37.819 2.508 47.615-.558 2.233-1.075 4.444-1.566 6.627-22.144 11.9-37.238 35.286-37.238 62.136v99.05c0 4.142 3.358 7.5 7.5 7.5h42.512.01.015 214.926.014.01 42.513c4.143 0 7.5-3.358 7.5-7.5v-36.199c0-4.142-3.357-7.5-7.5-7.5s-7.5 3.358-7.5 7.5v28.699h-27.601c-.593-8.327-2.865-16.506-6.69-23.878-3.967-7.647-5.355-16.499-4.017-25.599l2.107-14.329c.603-4.098-2.23-7.909-6.328-8.512-4.108-.6-7.909 2.231-8.512 6.329l-2.107 14.328c-1.801 12.234.116 24.23 5.542 34.69 2.767 5.333 4.415 11.028 4.959 16.971h-92.11c1.071-10.642 5.695-20.533 13.298-28.245 2.908-2.95 2.874-7.698-.075-10.606-2.95-2.908-7.699-2.876-10.606.076-4.146 4.205-7.609 8.907-10.359 13.962-2.75-5.054-6.214-9.757-10.359-13.962-2.908-2.951-7.657-2.984-10.606-.076-2.95 2.908-2.984 7.656-.076 10.606 7.602 7.712 12.227 17.602 13.298 28.245h-92.109c.544-5.943 2.192-11.638 4.958-16.971 5.426-10.458 7.342-22.454 5.542-34.689l-2.107-14.329c-.603-4.098-4.408-6.928-8.512-6.329-4.098.603-6.932 4.414-6.329 8.512l2.107 14.329c1.338 9.101-.051 17.953-4.017 25.599-3.825 7.373-6.097 15.551-6.689 23.878h-27.602v-91.55c0-30.598 24.893-55.49 55.49-55.49h37.87c14.689 0 26.64-11.951 26.64-26.64v-26.467c7.249 1.581 14.721 2.397 22.32 2.397 7.788 0 15.376-.866 22.68-2.495v26.565c0 14.689 11.95 26.64 26.64 26.64h37.87c30.598 0 55.49 24.893 55.49 55.49v27.268c0 4.141 3.357 7.499 7.5 7.499zm-46.05-245.107v-14.856c3.51-.632 6.498-3.271 7.349-6.91 1.064-4.571 3.572-16.797 4.131-32.383 11.851 1.707 16.15 15.937 16.15 29.308 0 17.082-6.953 34.75-18.59 34.75-3.727 0-6.863-1.358-9.277-2.973.152-2.293.237-4.605.237-6.936zm-21.94-122.623c24.039 30.278 19.083 74.292 15.87 91.701-36.381-9.491-62.539-33.491-77.808-71.415-8.427-20.931-11.209-40.915-12.125-51.445 33.848 1.392 58.739 11.857 74.063 31.159zm-164.022.002c15.325-19.303 40.216-29.769 74.064-31.162-.916 10.53-3.697 30.514-12.125 51.445-15.269 37.924-41.426 61.924-77.807 71.415-3.215-17.417-8.168-61.422 15.868-91.698zm-30.978 132.531c-11.636 0-18.59-17.668-18.59-34.75 0-13.371 4.299-27.601 16.15-29.308.559 15.586 3.068 27.811 4.132 32.381.847 3.64 3.835 6.281 7.348 6.912v15.225c0 2.207.076 4.401.212 6.584-2.41 1.605-5.538 2.956-9.252 2.956zm50.042 53.225c-16.768-16.758-26.002-39.048-26.002-62.765v-18.246c22.792-6.934 42.134-19.395 57.465-36.887 1.55.276 3.271.663 5.297 1.192.635.166 1.272.245 1.899.245 3.331 0 6.372-2.235 7.252-5.608.961-3.681-.991-7.431-4.421-8.829 6.004-8.849 11.188-18.671 15.488-29.44 2.391-5.989 4.353-11.872 5.97-17.504 1.617 5.632 3.579 11.515 5.97 17.504 4.3 10.769 9.484 20.591 15.488 29.44-3.43 1.398-5.381 5.148-4.421 8.83.881 3.373 3.922 5.607 7.252 5.607.627 0 1.265-.08 1.899-.245 2.026-.529 3.746-.916 5.296-1.192 15.332 17.493 34.674 29.953 57.466 36.888v17.875c0 49.152-39.983 89.14-89.13 89.14-23.717 0-46.007-9.235-62.768-26.005zm112.088 76.715c-6.418 0-11.64-5.222-11.64-11.64v-31.128c32.001-12.466 56.365-40.321 63.961-74.426 3.68 1.487 7.556 2.255 11.529 2.255 1.153 0 2.27-.084 3.365-.217-1.972 15.02-4.262 29.675-6.34 42.942-5.062 32.312-9.13 58.304-6.578 74.167-5.275-1.264-10.771-1.953-16.427-1.953z"/><path d="m248.105 220.448c2.988.78 5.441 1.17 7.895 1.17 2.452 0 4.906-.39 7.895-1.17 4.008-1.046 6.408-5.143 5.362-9.151-1.047-4.007-5.145-6.407-9.151-5.363-3.492.911-4.72.911-8.211 0-4.01-1.049-8.105 1.354-9.151 5.362-1.047 4.008 1.354 8.105 5.361 9.152z"/><path d="m271.202 231.577c-9.377 5.219-21.027 5.219-30.404 0-3.62-2.015-8.187-.713-10.201 2.906-2.015 3.62-.713 8.187 2.906 10.201 6.938 3.862 14.718 5.792 22.497 5.792s15.559-1.931 22.497-5.792c3.619-2.014 4.92-6.582 2.906-10.201s-6.58-4.921-10.201-2.906z"/><path d="m214 161.711c-4.142 0-7.5 3.358-7.5 7.5v6c0 4.142 3.358 7.5 7.5 7.5s7.5-3.358 7.5-7.5v-6c0-4.142-3.358-7.5-7.5-7.5z"/><path d="m298 161.711c-4.143 0-7.5 3.358-7.5 7.5v6c0 4.142 3.357 7.5 7.5 7.5s7.5-3.358 7.5-7.5v-6c0-4.142-3.357-7.5-7.5-7.5z"/></g></g></svg>